{
  "accessors": [
    {
      "bufferView": 2,
      "componentType": 5126,
      "count": 5537,
      "max": [
        0.07190397381782532,
        0.02590387873351574,
        0.07116126269102097
      ],
      "min": [
        -0.07261244207620621,
        -0.02355516515672207,
        -0.07416065037250519
      ],
      "type": "VEC3"
    },
    {
      "bufferView": 2,
      "byteOffset": 66444,
      "componentType": 5126,
      "count": 5537,
      "max": [
        0.9995609521865845,
        0.9999969005584717,
        0.999997615814209
      ],
      "min": [
        -0.9999963045120239,
        -0.9999997615814209,
        -0.9996514320373535
      ],
      "type": "VEC3"
    },
    {
      "bufferView": 1,
      "componentType": 5126,
      "count": 5537,
      "max": [
        1.000000238418579,
        1.000000238418579
      ],
      "min": [
        -2.220446578645905e-16,
        2.220446578645905e-16
      ],
      "type": "VEC2"
    },
    {
      "bufferView": 0,
      "componentType": 5125,
      "count": 32256,
      "type": "SCALAR"
    },
    {
      "bufferView": 2,
      "byteOffset": 132888,
      "componentType": 5126,
      "count": 5537,
      "max": [
        0.07290269434452057,
        0.02690259739756584,
        0.07216028869152069
      ],
      "min": [
        -0.07361234724521637,
        -0.024555135518312454,
        -0.07515836507081985
      ],
      "type": "VEC3"
    },
    {
      "bufferView": 2,
      "byteOffset": 199332,
      "componentType": 5126,
      "count": 5537,
      "max": [
        0.9999964237213135,
        0.9999997615814209,
        0.9996514320373535
      ],
      "min": [
        -0.9995617866516113,
        -0.9999969005584717,
        -0.999997615814209
      ],
      "type": "VEC3"
    },
    {
      "bufferView": 1,
      "byteOffset": 44296,
      "componentType": 5126,
      "count": 5537,
      "max": [
        1.000000238418579,
        1.000000238418579
      ],
      "min": [
        -2.220446578645905e-16,
        2.220446578645905e-16
      ],
      "type": "VEC2"
    },
    {
      "bufferView": 0,
      "byteOffset": 129024,
      "componentType": 5125,
      "count": 32256,
      "type": "SCALAR"
    },
    {
      "bufferView": 2,
      "byteOffset": 265776,
      "componentType": 5126,
      "count": 65532,
      "max": [
        0.07305087149143219,
        0.06259991973638535,
        0.07200153917074203
      ],
      "min": [
        -0.07166504114866257,
        -0.007123907096683979,
        -0.09529703855514526
      ],
      "type": "VEC3"
    },
    {
      "bufferView": 2,
      "byteOffset": 1052160,
      "componentType": 5126,
      "count": 65532,
      "max": [
        0.9987030625343323,
        0.9999994039535522,
        0.9994535446166992
      ],
      "min": [
        -0.9999113082885742,
        -0.9999821186065674,
        -0.999914288520813
      ],
      "type": "VEC3"
    },
    {
      "bufferView": 1,
      "byteOffset": 88592,
      "componentType": 5126,
      "count": 65532,
      "max": [
        1.0000001192092896,
        0.9166668057441711
      ],
      "min": [
        -2.220446313948109e-16,
        0.5833333134651184
      ],
      "type": "VEC2"
    },
    {
      "bufferView": 0,
      "byteOffset": 258048,
      "componentType": 5125,
      "count": 374472,
      "type": "SCALAR"
    },
    {
      "bufferView": 2,
      "byteOffset": 1838544,
      "componentType": 5126,
      "count": 4576,
      "max": [
        0.07241226732730865,
        0.06021629646420479,
        0.06910758465528488
      ],
      "min": [
        -0.07155218720436096,
        -0.004824385046958923,
        -0.09131059795618057
      ],
      "type": "VEC3"
    },
    {
      "bufferView": 2,
      "byteOffset": 1893456,
      "componentType": 5126,
      "count": 4576,
      "max": [
        0.9993904829025269,
        0.9862558841705322,
        0.9988712072372437
      ],
      "min": [
        -0.9997612237930298,
        -0.999801754951477,
        -0.9718960523605347
      ],
      "type": "VEC3"
    },
    {
      "bufferView": 1,
      "byteOffset": 612848,
      "componentType": 5126,
      "count": 4576,
      "max": [
        1.0000001192092896,
        0.7031250596046448
      ],
      "min": [
        -2.220446313948109e-16,
        0.5833333134651184
      ],
      "type": "VEC2"
    },
    {
      "bufferView": 0,
      "byteOffset": 1755936,
      "componentType": 5125,
      "count": 21192,
      "type": "SCALAR"
    },
    {
      "bufferView": 2,
      "byteOffset": 1948368,
      "componentType": 5126,
      "count": 65532,
      "max": [
        0.07404699921607971,
        0.06358038634061813,
        0.07299097627401352
      ],
      "min": [
        -0.07266281545162201,
        -0.008118749596178532,
        -0.09629206359386444
      ],
      "type": "VEC3"
    },
    {
      "bufferView": 2,
      "byteOffset": 2734752,
      "componentType": 5126,
      "count": 65532,
      "max": [
        0.9997916221618652,
        0.9999821186065674,
        0.9999030828475952
      ],
      "min": [
        -0.9978719353675842,
        -0.9999994039535522,
        -0.9997689723968506
      ],
      "type": "VEC3"
    },
    {
      "bufferView": 1,
      "byteOffset": 649456,
      "componentType": 5126,
      "count": 65532,
      "max": [
        1.0000001192092896,
        0.9166668057441711
      ],
      "min": [
        -2.220446313948109e-16,
        0.5833333134651184
      ],
      "type": "VEC2"
    },
    {
      "bufferView": 0,
      "byteOffset": 1840704,
      "componentType": 5125,
      "count": 374865,
      "type": "SCALAR"
    },
    {
      "bufferView": 2,
      "byteOffset": 3521136,
      "componentType": 5126,
      "count": 4464,
      "max": [
        0.07339462637901306,
        0.06112535297870636,
        0.06850682199001312
      ],
      "min": [
        -0.07201970368623734,
        -0.005154320504516363,
        -0.09225139021873474
      ],
      "type": "VEC3"
    },
    {
      "bufferView": 2,
      "byteOffset": 3574704,
      "componentType": 5126,
      "count": 4464,
      "max": [
        0.997356653213501,
        0.9995529651641846,
        0.9995601177215576
      ],
      "min": [
        -0.9994004964828491,
        -0.9878926277160645,
        -0.9988793730735779
      ],
      "type": "VEC3"
    },
    {
      "bufferView": 1,
      "byteOffset": 1173712,
      "componentType": 5126,
      "count": 4464,
      "max": [
        0.9776787161827087,
        0.7031250596046448
      ],
      "min": [
        -2.220446313948109e-16,
        0.5833333134651184
      ],
      "type": "VEC2"
    },
    {
      "bufferView": 0,
      "byteOffset": 3340164,
      "componentType": 5125,
      "count": 20799,
      "type": "SCALAR"
    },
    {
      "bufferView": 2,
      "byteOffset": 3628272,
      "componentType": 5126,
      "count": 1549,
      "max": [
        1.3098336458206177,
        1.144327163696289,
        1.1076171398162842
      ],
      "min": [
        -1.3481138944625854,
        0.7789468765258789,
        0.37359705567359924
      ],
      "type": "VEC3"
    },
    {
      "bufferView": 2,
      "byteOffset": 3646860,
      "componentType": 5126,
      "count": 1549,
      "max": [
        0.8522773385047913,
        0.9974774718284607,
        0.9294357299804688
      ],
      "min": [
        -0.818000853061676,
        -0.9974536895751953,
        -0.8301886320114136
      ],
      "type": "VEC3"
    },
    {
      "bufferView": 1,
      "byteOffset": 1209424,
      "componentType": 5126,
      "count": 1549,
      "max": [
        0.9746209979057312,
        0.47472143173217773
      ],
      "min": [
        0.0,
        0.0
      ],
      "type": "VEC2"
    },
    {
      "bufferView": 0,
      "byteOffset": 3423360,
      "componentType": 5125,
      "count": 7248,
      "type": "SCALAR"
    },
    {
      "bufferView": 2,
      "byteOffset": 3665448,
      "componentType": 5126,
      "count": 1550,
      "max": [
        1.3694918155670166,
        1.2090860605239868,
        1.1721460819244385
      ],
      "min": [
        -1.4038946628570557,
        0.7104748487472534,
        0.3193650543689728
      ],
      "type": "VEC3"
    },
    {
      "bufferView": 2,
      "byteOffset": 3684048,
      "componentType": 5126,
      "count": 1550,
      "max": [
        0.9001196622848511,
        0.9991339445114136,
        0.910195529460907
      ],
      "min": [
        -0.9265592694282532,
        -0.9998893737792969,
        -0.9760434031486511
      ],
      "type": "VEC3"
    },
    {
      "bufferView": 1,
      "byteOffset": 1221816,
      "componentType": 5126,
      "count": 1550,
      "max": [
        0.9746209979057312,
        0.47472143173217773
      ],
      "min": [
        0.0,
        0.0
      ],
      "type": "VEC2"
    },
    {
      "bufferView": 0,
      "byteOffset": 3452352,
      "componentType": 5125,
      "count": 7248,
      "type": "SCALAR"
    },
    {
      "bufferView": 3,
      "componentType": 5126,
      "count": 61,
      "max": [
        2.5
      ],
      "min": [
        0.0
      ],
      "type": "SCALAR"
    },
    {
      "bufferView": 4,
      "componentType": 5126,
      "count": 61,
      "max": [
        0.0,
        0.9981439113616943,
        -0.0,
        0.9999955296516418
      ],
      "min": [
        0.0,
        -0.9999343752861023,
        -0.0,
        0.011455816216766834
      ],
      "type": "VEC4"
    },
    {
      "bufferView": 3,
      "byteOffset": 244,
      "componentType": 5126,
      "count": 61,
      "max": [
        2.5
      ],
      "min": [
        0.0
      ],
      "type": "SCALAR"
    },
    {
      "bufferView": 4,
      "byteOffset": 976,
      "componentType": 5126,
      "count": 61,
      "max": [
        0.0,
        0.9981439113616943,
        -0.0,
        0.9999955296516418
      ],
      "min": [
        0.0,
        -0.9999343752861023,
        -0.0,
        0.01145701203495264
      ],
      "type": "VEC4"
    }
  ],
  "animations": [
    {
      "channels": [
        {
          "sampler": 0,
          "target": {
            "node": 3,
            "path": "rotation"
          }
        }
      ],
      "name": "Action",
      "samplers": [
        {
          "input": 32,
          "interpolation": "LINEAR",
          "output": 33
        }
      ]
    },
    {
      "channels": [
        {
          "sampler": 0,
          "target": {
            "node": 3,
            "path": "rotation"
          }
        }
      ],
      "name": "donutAction",
      "samplers": [
        {
          "input": 34,
          "interpolation": "LINEAR",
          "output": 35
        }
      ]
    }
  ],
  "asset": {
    "extras": {
      "author": "Cresis (https://sketchfab.com/Cresis)",
      "license": "CC-BY-4.0 (http://creativecommons.org/licenses/by/4.0/)",
      "source": "https://sketchfab.com/3d-models/donut-cat-ver2-b9579ca17c274a48a1e083da0e909865",
      "title": "Donut Cat ver2!"
    },
    "generator": "Sketchfab-12.67.0",
    "version": "2.0"
  },
  "bufferViews": [
    {
      "buffer": 0,
      "byteLength": 3481344,
      "name": "floatBufferViews",
      "target": 34963
    },
    {
      "buffer": 0,
      "byteLength": 1234216,
      "byteOffset": 3481344,
      "byteStride": 8,
      "name": "floatBufferViews",
      "target": 34962
    },
    {
      "buffer": 0,
      "byteLength": 3702648,
      "byteOffset": 4715560,
      "byteStride": 12,
      "name": "floatBufferViews",
      "target": 34962
    },
    {
      "buffer": 0,
      "byteLength": 488,
      "byteOffset": 8418208,
      "name": "floatBufferViews"
    },
    {
      "buffer": 0,
      "byteLength": 1952,
      "byteOffset": 8418696,
      "byteStride": 16,
      "name": "floatBufferViews"
    }
  ],
  "buffers": [
    {
      "byteLength": 8420648,
      "uri": "scene.bin"
    }
  ],
  "extensionsUsed": [
    "KHR_materials_unlit"
  ],
  "materials": [
    {
      "doubleSided": true,
      "extensions": {
        "KHR_materials_unlit": {}
      },
      "name": "Material.003",
      "pbrMetallicRoughness": {
        "baseColorFactor": [
          1.0,
          0.808133,
          0.299942,
          1.0
        ],
        "metallicFactor": 0.0
      }
    },
    {
      "extensions": {
        "KHR_materials_unlit": {}
      },
      "name": "Material.008",
      "pbrMetallicRoughness": {
        "metallicFactor": 0.0
      }
    },
    {
      "doubleSided": true,
      "emissiveFactor": [
        0.101207,
        0.203508,
        0.250208
      ],
      "extensions": {
        "KHR_materials_unlit": {}
      },
      "name": "Material.004",
      "pbrMetallicRoughness": {
        "baseColorFactor": [
          0.816276,
          0.190823,
          0.186808,
          1.0
        ],
        "metallicFactor": 0.0
      }
    },
    {
      "emissiveFactor": [
        0.441283,
        0.064822,
        0.082543
      ],
      "extensions": {
        "KHR_materials_unlit": {}
      },
      "name": "Material.009",
      "pbrMetallicRoughness": {
        "metallicFactor": 0.0
      }
    },
    {
      "doubleSided": true,
      "extensions": {
        "KHR_materials_unlit": {}
      },
      "name": "Material.002",
      "pbrMetallicRoughness": {
        "baseColorFactor": [
          0.0839905,
          0.0839905,
          0.0839905,
          1.0
        ],
        "metallicFactor": 0.0
      }
    },
    {
      "extensions": {
        "KHR_materials_unlit": {}
      },
      "name": "Material.005",
      "pbrMetallicRoughness": {
        "baseColorFactor": [
          0.42197790782417816,
          0.16519951853735187,
          0.16519951853735187,
          1.0
        ],
        "metallicFactor": 0.0
      }
    }
  ],
  "meshes": [
    {
      "name": "Object_0",
      "primitives": [
        {
          "attributes": {
            "NORMAL": 1,
            "POSITION": 0,
            "TEXCOORD_0": 2
          },
          "indices": 3,
          "material": 0,
          "mode": 4
        }
      ]
    },
    {
      "name": "Object_1",
      "primitives": [
        {
          "attributes": {
            "NORMAL": 5,
            "POSITION": 4,
            "TEXCOORD_0": 6
          },
          "indices": 7,
          "material": 1,
          "mode": 4
        }
      ]
    },
    {
      "name": "Object_2",
      "primitives": [
        {
          "attributes": {
            "NORMAL": 9,
            "POSITION": 8,
            "TEXCOORD_0": 10
          },
          "indices": 11,
          "material": 2,
          "mode": 4
        }
      ]
    },
    {
      "name": "Object_3",
      "primitives": [
        {
          "attributes": {
            "NORMAL": 13,
            "POSITION": 12,
            "TEXCOORD_0": 14
          },
          "indices": 15,
          "material": 2,
          "mode": 4
        }
      ]
    },
    {
      "name": "Object_4",
      "primitives": [
        {
          "attributes": {
            "NORMAL": 17,
            "POSITION": 16,
            "TEXCOORD_0": 18
          },
          "indices": 19,
          "material": 3,
          "mode": 4
        }
      ]
    },
    {
      "name": "Object_5",
      "primitives": [
        {
          "attributes": {
            "NORMAL": 21,
            "POSITION": 20,
            "TEXCOORD_0": 22
          },
          "indices": 23,
          "material": 3,
          "mode": 4
        }
      ]
    },
    {
      "name": "Object_6",
      "primitives": [
        {
          "attributes": {
            "NORMAL": 25,
            "POSITION": 24,
            "TEXCOORD_0": 26
          },
          "indices": 27,
          "material": 4,
          "mode": 4
        }
      ]
    },
    {
      "name": "Object_7",
      "primitives": [
        {
          "attributes": {
            "NORMAL": 29,
            "POSITION": 28,
            "TEXCOORD_0": 30
          },
          "indices": 31,
          "material": 5,
          "mode": 4
        }
      ]
    }
  ],
  "nodes": [
    {
      "children": [
        1
      ],
      "matrix": [
        1.0,
        0.0,
        0.0,
        0.0,
        0.0,
        2.220446049250313e-16,
        -1.0,
        0.0,
        0.0,
        1.0,
        2.220446049250313e-16,
        0.0,
        0.0,
        0.0,
        0.0,
        1.0
      ],
      "name": "Sketchfab_model"
    },
    {
      "children": [
        2
      ],
      "name": "root"
    },
    {
      "children": [
        3
      ],
      "matrix": [
        1.0,
        0.0,
        0.0,
        0.0,
        0.0,
        2.220446049250313e-16,
        1.0,
        0.0,
        0.0,
        -1.0,
        2.220446049250313e-16,
        0.0,
        0.0,
        0.0,
        0.0,
        1.0
      ],
      "name": "GLTF_SceneRootNode"
    },
    {
      "children": [
        4,
        5,
        6,
        11
      ],
      "name": "donut_2",
      "rotation": [
        0.0,
        -0.68964684009552,
        0.0,
        0.7241458892822266
      ],
      "translation": [
        0.0,
        0.02438358962535858,
        0.0
      ]
    },
    {
      "mesh": 0,
      "name": "Object_4"
    },
    {
      "mesh": 1,
      "name": "Object_5"
    },
    {
      "children": [
        7,
        8,
        9,
        10
      ],
      "name": "polewka_0"
    },
    {
      "mesh": 2,
      "name": "Object_7"
    },
    {
      "mesh": 3,
      "name": "Object_8"
    },
    {
      "mesh": 4,
      "name": "Object_9"
    },
    {
      "mesh": 5,
      "name": "Object_10"
    },
    {
      "children": [
        12,
        13
      ],
      "matrix": [
        -0.012123341672122478,
        0.0,
        -0.0,
        -0.0,
        0.0,
        2.0438426146141314e-09,
        -0.012123341672122307,
        -0.0,
        0.0,
        0.012123341672122307,
        2.0438426146141314e-09,
        -0.0,
        -0.0025450834073126316,
        -0.005236286669969559,
        0.08190847188234329,
        1.0
      ],
      "name": "twarz_1"
    },
    {
      "mesh": 6,
      "name": "Object_12"
    },
    {
      "mesh": 7,
      "name": "Object_13"
    }
  ],
  "scene": 0,
  "scenes": [
    {
      "name": "Sketchfab_Scene",
      "nodes": [
        0
      ]
    }
  ]
}
